<svg width="28" height="28" viewBox="0 0 28 28" fill="none" xmlns="http://www.w3.org/2000/svg">
<g id="fi_6433684">
<g id="Group">
<path id="Vector" d="M14 9.7207C11.6387 9.7207 9.7207 11.6387 9.7207 14C9.7207 16.3614 11.6387 18.284 14 18.284C16.3614 18.284 18.284 16.3614 18.284 14C18.284 11.6387 16.3614 9.7207 14 9.7207Z" fill="#37B874"/>
<path id="Vector_2" d="M20.4583 2.3335H7.54101C4.67101 2.3335 2.33301 4.6715 2.33301 7.5415V20.4588C2.33301 23.3335 4.67101 25.6668 7.54101 25.6668H20.4583C23.333 25.6668 25.6663 23.3335 25.6663 20.4588V7.5415C25.6663 4.6715 23.333 2.3335 20.4583 2.3335ZM13.9997 21.5602C9.83234 21.5602 6.43967 18.1675 6.43967 14.0002C6.43967 9.83283 9.83234 6.44483 13.9997 6.44483C18.167 6.44483 21.5597 9.83283 21.5597 14.0002C21.5597 18.1675 18.167 21.5602 13.9997 21.5602ZM21.7183 7.81683C20.8363 7.81683 20.1177 7.10283 20.1177 6.22083C20.1177 5.33883 20.8363 4.62016 21.7183 4.62016C22.6003 4.62016 23.319 5.33883 23.319 6.22083C23.319 7.10283 22.6003 7.81683 21.7183 7.81683Z" fill="#37B874"/>
</g>
</g>
</svg>
